<svg xmlns="http://www.w3.org/2000/svg" xmlns:xlink="http://www.w3.org/1999/xlink" viewBox="0 0 920 737.25">
  <g transform="translate(-280.5 -430.5)">
    <path d="M774.88 880c0 52.4-42.48 94.88-94.88 94.88S585.12 932.4 585.12 880s42.48-94.88 94.88-94.88 94.88 42.48 94.88 94.88z" stroke="#979ea8" fill="#dfe3e8"/>
    <use xlink:href="#a" transform="translate(621.37 876.386)"/>
    <use xlink:href="#b" transform="translate(643.29 900.084)"/>
    <path d="M647.25 673.63c0 29.6-24 53.62-53.63 53.62-29.6 0-53.62-24-53.62-53.63 0-29.6 24-53.62 53.63-53.62 29.6 0 53.62 24 53.62 53.63z" stroke="#fe7070" fill="#ffd9d9"/>
    <use xlink:href="#c" transform="translate(549.41 670.263)"/>
    <use xlink:href="#d" transform="translate(568.546 688.752)"/>
    <path d="M544.25 906.63c0 29.6-24 53.62-53.63 53.62-29.6 0-53.62-24-53.62-53.63 0-29.6 24-53.62 53.63-53.62 29.6 0 53.62 24 53.62 53.63z" stroke="#54c45e" fill="#e3fae3"/>
    <use xlink:href="#e" transform="translate(446.41 903.263)"/>
    <use xlink:href="#f" transform="translate(465.546 921.752)"/>
    <path d="M595.25 1013.63c0 29.6-24 53.62-53.63 53.62-29.6 0-53.62-24-53.62-53.63 0-29.6 24-53.62 53.63-53.62 29.6 0 53.62 24 53.62 53.63z" stroke="#54c45e" fill="#e3fae3"/>
    <use xlink:href="#g" transform="translate(497.41 1010.263)"/>
    <use xlink:href="#h" transform="translate(516.546 1028.752)"/>
    <path d="M704.25 1070.63c0 29.6-24 53.62-53.63 53.62-29.6 0-53.62-24-53.62-53.63 0-29.6 24-53.62 53.63-53.62 29.6 0 53.62 24 53.62 53.63z" stroke="#54c45e" fill="#e3fae3"/>
    <use xlink:href="#e" transform="translate(606.41 1067.263)"/>
    <use xlink:href="#i" transform="translate(631.47 1085.752)"/>
    <path d="M1035.25 873.63c0 29.6-24 53.62-53.63 53.62-29.6 0-53.62-24-53.62-53.63 0-29.6 24-53.62 53.63-53.62 29.6 0 53.62 24 53.62 53.63z" stroke="#1071e5" fill="#cfe4ff"/>
    <use xlink:href="#j" transform="translate(937.41 870.263)"/>
    <use xlink:href="#k" transform="translate(962.47 888.752)"/>
    <path d="M1014.25 992.63c0 29.6-24 53.62-53.63 53.62-29.6 0-53.62-24-53.62-53.63 0-29.6 24-53.62 53.63-53.62 29.6 0 53.62 24 53.62 53.63z" stroke="#1071e5" fill="#cfe4ff"/>
    <use xlink:href="#j" transform="translate(916.41 989.263)"/>
    <use xlink:href="#l" transform="translate(941.47 1007.752)"/>
    <path d="M947.25 1093.63c0 29.6-24 53.62-53.63 53.62-29.6 0-53.62-24-53.62-53.63 0-29.6 24-53.62 53.63-53.62 29.6 0 53.62 24 53.62 53.63z" stroke="#1071e5" fill="#cfe4ff"/>
    <use xlink:href="#j" transform="translate(849.41 1090.263)"/>
    <use xlink:href="#m" transform="translate(874.47 1108.752)"/>
    <path d="M1008.25 753.63c0 29.6-24 53.62-53.63 53.62-29.6 0-53.62-24-53.62-53.63 0-29.6 24-53.62 53.63-53.62 29.6 0 53.62 24 53.62 53.63z" stroke="#1071e5" fill="#cfe4ff"/>
    <use xlink:href="#j" transform="translate(910.41 750.263)"/>
    <use xlink:href="#n" transform="translate(929.546 768.752)"/>
    <path d="M1093 620c0 22.1-17.9 40-40 40s-40-17.9-40-40 17.9-40 40-40 40 17.9 40 40z" stroke="#1071e5" fill="#cfe4ff"/>
    <use xlink:href="#o" transform="translate(1021.471 617.138)"/>
    <use xlink:href="#p" transform="translate(1030.393 635.627)"/>
    <path d="M1149 722c0 22.1-17.9 40-40 40s-40-17.9-40-40 17.9-40 40-40 40 17.9 40 40z" stroke="#1071e5" fill="#cfe4ff"/>
    <use xlink:href="#o" transform="translate(1077.471 719.138)"/>
    <use xlink:href="#q" transform="translate(1083.041 737.627)"/>
    <path d="M651 491c0 22.1-17.9 40-40 40s-40-17.9-40-40 17.9-40 40-40 40 17.9 40 40z" stroke="#fe7070" fill="#ffd9d9"/>
    <use xlink:href="#r" transform="translate(579.471 488.138)"/>
    <use xlink:href="#s" transform="translate(588.393 506.627)"/>
    <path d="M524 526c0 22.1-17.9 40-40 40s-40-17.9-40-40 17.9-40 40-40 40 17.9 40 40z" stroke="#fe7070" fill="#ffd9d9"/>
    <use xlink:href="#r" transform="translate(452.471 523.138)"/>
    <use xlink:href="#t" transform="translate(458.041 541.627)"/>
    <path d="M1180 880c0 22.1-17.9 40-40 40s-40-17.9-40-40 17.9-40 40-40 40 17.9 40 40z" stroke="#1071e5" fill="#cfe4ff"/>
    <use xlink:href="#o" transform="translate(1108.471 877.138)"/>
    <use xlink:href="#u" transform="translate(1118.078 895.627)"/>
    <path d="M381 911c0 22.1-17.9 40-40 40s-40-17.9-40-40 17.9-40 40-40 40 17.9 40 40z" stroke="#54c45e" fill="#e3fae3"/>
    <use xlink:href="#v" transform="translate(309.471 908.138)"/>
    <use xlink:href="#w" transform="translate(318.393 926.627)"/>
    <path d="M417 1013c0 22.1-17.9 40-40 40s-40-17.9-40-40 17.9-40 40-40 40 17.9 40 40z" stroke="#54c45e" fill="#e3fae3"/>
    <use xlink:href="#x" transform="translate(345.471 1010.138)"/>
    <use xlink:href="#y" transform="translate(351.041 1028.627)"/>
    <path d="M643.58 791.32 619.5 739.2" stroke="#979ea8" fill="none"/>
    <path d="m644.23 791.6-.88.35-.2-.44.86-.4z" stroke="#979ea8" stroke-width=".05" fill="#979ea8"/>
    <path d="m613.3 725.8 10.2 11-8.42 3.9z" stroke="#979ea8" fill="#979ea8"/>
    <path d="m666.88 974.95-3.78 26.28" stroke="#979ea8" fill="none"/>
    <path d="m667.42 974.52-.08.5-.94-.12.08-.5z" stroke="#979ea8" stroke-width=".05" fill="#979ea8"/>
    <path d="m661 1015.85-2.56-14.78 9.18 1.32z" stroke="#979ea8" fill="#979ea8"/>
    <path d="m765.8 837.2 129.88-45.9" stroke="#979ea8" fill="none"/>
    <path d="m765.97 837.63-.44.15-.2-.4-.23-.45.56-.2z" stroke="#979ea8" stroke-width=".05" fill="#979ea8"/>
    <path d="m909.6 786.4-11.9 9.1-3.1-8.73z" stroke="#979ea8" fill="#979ea8"/>
    <path d="m775.86 879.34 135.6-.04" stroke="#979ea8" fill="none"/>
    <path d="M775.87 879.8h-.5l-.02-.94h.52z" stroke="#979ea8" stroke-width=".05" fill="#979ea8"/>
    <path d="m926.22 879.3-14.26 4.64v-9.27z" stroke="#979ea8" fill="#979ea8"/>
    <path d="m766.28 921.78 128.62 44.16" stroke="#979ea8" fill="none"/>
    <path d="m766.44 921.34-.3.9-.54-.2.4-.85z" stroke="#979ea8" stroke-width=".05" fill="#979ea8"/>
    <path d="m908.87 970.74-15-.25 3-8.78z" stroke="#979ea8" fill="#979ea8"/>
    <path d="m741 953.9 108.86 85.22" stroke="#979ea8" fill="none"/>
    <path d="m741.32 953.54-.6.75-.47-.4.74-.6z" stroke="#979ea8" stroke-width=".05" fill="#979ea8"/>
    <path d="m861.48 1048.22-14.1-5.14 5.73-7.3z" stroke="#979ea8" fill="#979ea8"/>
    <path d="m585.07 893.35-24.67 3.47" stroke="#979ea8" fill="none"/>
    <path d="m585.62 893.75-.5.07-.13-.94.5-.07z" stroke="#979ea8" stroke-width=".05" fill="#979ea8"/>
    <path d="m545.78 898.87 13.48-6.58 1.3 9.18z" stroke="#979ea8" fill="#979ea8"/>
    <path d="m610.6 946.1-18.5 18.4" stroke="#979ea8" fill="none"/>
    <path d="m611.28 946.1-.35.35-.67-.67.37-.37z" stroke="#979ea8" stroke-width=".05" fill="#979ea8"/>
    <path d="m581.64 974.9 6.85-13.35 6.53 6.58z" stroke="#979ea8" fill="#979ea8"/>
    <path d="m558.93 631.5-46.98-56.36" stroke="#fe7070" fill="none"/>
    <path d="m559.6 631.6-.72.6-.33-.4.73-.6z" stroke="#fe7070" stroke-width=".05" fill="#fe7070"/>
    <path d="m502.5 563.8 12.7 8-7.13 5.92z" stroke="#fe7070" fill="#fe7070"/>
    <path d="m593.68 619 7.36-72.12" stroke="#fe7070" fill="none"/>
    <path d="m594.15 619.04-.05.48-.47-.02-.48.02.06-.58z" stroke="#fe7070" stroke-width=".05" fill="#fe7070"/>
    <path d="m602.54 532.2 3.16 14.65-9.22-.94z" stroke="#fe7070" fill="#fe7070"/>
    <path d="m436.07 908.36-38.2 1.85" stroke="#54c45e" fill="none"/>
    <path d="m436.6 908.8-.52.03-.05-.95.52-.02z" stroke="#54c45e" stroke-width=".05" fill="#54c45e"/>
    <path d="m383.12 910.92 14.02-5.32.45 9.26z" stroke="#54c45e" fill="#54c45e"/>
    <path d="m454.63 947.65-33.46 29.64" stroke="#54c45e" fill="none"/>
    <path d="m455.37 947.62-.44.4-.63-.72.34-.3z" stroke="#54c45e" stroke-width=".05" fill="#54c45e"/>
    <path d="m410.12 987.08 7.6-12.93 6.15 6.94z" stroke="#54c45e" fill="#54c45e"/>
    <path d="m974.9 702.93 39.6-41.1" stroke="#6db1ff" fill="none"/>
    <path d="m975.24 703.25-.23.25-.66-.3-.27-.1.5-.5z" stroke="#6db1ff" stroke-width=".05" fill="#6db1ff"/>
    <path d="m1024.75 651.2-6.56 13.48-6.7-6.43z" stroke="#6db1ff" fill="#6db1ff"/>
    <path d="m1009.22 753.46 45.2-15.83" stroke="#6db1ff" fill="none"/>
    <path d="m1009.4 753.9-.67.24.02-.5-.02-.5.35-.13z" stroke="#6db1ff" stroke-width=".05" fill="#6db1ff"/>
    <path d="m1068.35 732.75-11.93 9.1-3.07-8.76z" stroke="#6db1ff" fill="#6db1ff"/>
    <path d="M1036.2 872.33h47.72" stroke="#6db1ff" fill="none"/>
    <path d="M1036.2 872.8h-.48l-.04-.95h.53z" stroke="#6db1ff" stroke-width=".05" fill="#6db1ff"/>
    <path d="m1098.7 872.33-14.28 4.63v-9.27z" stroke="#6db1ff" fill="#6db1ff"/>
    <path d="M585.25 788.13c0 27.13-22 49.12-49.13 49.12-27.13 0-49.12-22-49.12-49.13C487 761 509 739 536.13 739c27.13 0 49.12 22 49.12 49.13z" stroke="#979ea8" fill="#dfe3e8"/>
    <use xlink:href="#z" transform="translate(491.91 784.648)"/>
    <use xlink:href="#A" transform="translate(522.463 803.138)"/>
    <path d="m599.77 827.5-7.32-5.1" stroke="#979ea8" fill="none"/>
    <path d="m600.46 827.38-.3.44-.23.36-.44-.3.53-.8z" stroke="#979ea8" stroke-width=".05" fill="#979ea8"/>
    <path d="m580.33 813.98 14.36 4.33-5.3 7.63z" stroke="#979ea8" fill="#979ea8"/>
    <path d="M963.17 708.35c-7.33-.8-8.54-3.95-8.54-3.95s-1.66 4.15-12.18 4.15v17c0 2.06 1.14 3.98 2.73 5.68 3.58 3.8 9.45 6.37 9.45 6.37s12.17-5.34 12.17-12.05v-17c-1.36 0-2.56-.07-3.63-.2z" fill="#6db1ff"/>
    <path d="m957.64 715.4 5.53-7.03c-7.32-.83-8.54-3.97-8.54-3.97s-1.65 4.15-12.18 4.15v17c0 2.05 1.14 3.98 2.73 5.67l4.1-5.2 8.36-10.63z" fill="#a6cbff" fill-opacity=".4"/>
    <path d="M959.45 720.64h-.7v-2.36c0-1.13-.43-2.18-1.1-2.95l-.1-.1a4.002 4.002 0 0 0-2.92-1.28c-1.16 0-2.2.5-2.94 1.28-.75.8-1.2 1.88-1.2 3.05v2.36h-.7c-.3 0-.53.23-.53.53v6.24c0 .3.23.54.53.54h9.65c.3 0 .54-.24.54-.53v-6.23c0-.3-.25-.53-.55-.53zm-2.66 0h-4.34v-2.36c0-.68.26-1.28.65-1.7.42-.44.95-.68 1.52-.68.58 0 1.1.24 1.52.68.08.1.17.2.25.33.24.4.4.87.4 1.38v2.36z" fill="#edf6ff"/>
    <path d="M601.17 626.95c-7.33-.8-8.54-3.95-8.54-3.95s-1.66 4.15-12.18 4.15v17c0 2.06 1.14 4 2.73 5.68 3.58 3.82 9.45 6.37 9.45 6.37s12.17-5.34 12.17-12.05v-17c-1.36 0-2.56-.07-3.63-.2z" fill="#fe7070"/>
    <path d="m595.64 634 5.53-7.03c-7.32-.83-8.54-3.97-8.54-3.97s-1.65 4.16-12.18 4.16v17c0 2.04 1.14 3.97 2.73 5.66l4.1-5.2 8.36-10.63z" fill="#ff8aa2" fill-opacity=".4"/>
    <path d="M597.45 639.24h-.7v-2.35c0-1.15-.43-2.2-1.1-2.97-.04-.02-.07-.07-.1-.1a4.002 4.002 0 0 0-2.92-1.28c-1.16 0-2.2.5-2.94 1.3-.75.78-1.2 1.86-1.2 3.04v2.34h-.7c-.3 0-.53.24-.53.53V646c0 .3.23.54.53.54h9.65c.3 0 .54-.23.54-.53v-6.23c0-.3-.25-.53-.55-.53zm-2.66 0h-4.34v-2.35c0-.7.26-1.3.65-1.72.42-.43.95-.67 1.52-.67.58 0 1.1.25 1.52.68.08.1.17.2.25.34.24.37.4.85.4 1.37v2.34z" fill="#ffb5ff"/>
    <path d="M499.72 860.95c-7.33-.8-8.55-3.95-8.55-3.95s-1.65 4.15-12.17 4.15v17c0 2.06 1.14 4 2.73 5.68 3.58 3.82 9.44 6.37 9.44 6.37s12.18-5.34 12.18-12.05v-17c-1.36 0-2.56-.07-3.63-.2z" fill="#54c45e"/>
    <path d="m494.2 868 5.52-7.03c-7.32-.83-8.54-3.97-8.54-3.97s-1.66 4.16-12.18 4.16v17c0 2.04 1.14 3.97 2.74 5.66l4.08-5.2L494.2 868z" fill="#8dde90" fill-opacity=".4"/>
    <path d="M496 873.24h-.7v-2.35c0-1.15-.43-2.2-1.1-2.97-.05-.02-.07-.07-.1-.1a4.007 4.007 0 0 0-2.93-1.28c-1.15 0-2.2.5-2.93 1.3-.74.78-1.18 1.86-1.18 3.04v2.34h-.7c-.3 0-.55.24-.55.53V880c0 .3.25.54.55.54H496c.3 0 .54-.23.54-.53v-6.23c0-.3-.24-.53-.54-.53zm-2.66 0H489v-2.35c0-.7.27-1.3.66-1.72.4-.43.94-.67 1.5-.67.6 0 1.12.25 1.53.68.07.1.16.2.24.34.25.37.4.85.4 1.37v2.34z" fill="#d4ffff"/>
    <path d="M550.17 967.2c-7.33-.8-8.54-3.95-8.54-3.95s-1.66 4.15-12.18 4.15v17c0 2.06 1.14 4 2.73 5.68 3.58 3.82 9.45 6.37 9.45 6.37s12.17-5.34 12.17-12.05v-17c-1.36 0-2.56-.06-3.63-.2z" fill="#54c45e"/>
    <path d="m544.64 974.25 5.53-7.03c-7.32-.83-8.54-3.97-8.54-3.97s-1.65 4.16-12.18 4.16v17c0 2.05 1.14 3.98 2.73 5.67l4.1-5.2 8.36-10.62z" fill="#8dde90" fill-opacity=".4"/>
    <path d="M546.45 979.5h-.7v-2.36c0-1.14-.43-2.2-1.1-2.96-.04-.02-.07-.07-.1-.1a4.002 4.002 0 0 0-2.92-1.28c-1.16 0-2.2.5-2.94 1.3-.75.78-1.2 1.86-1.2 3.04v2.35h-.7c-.3 0-.53.23-.53.52v6.24c0 .3.23.53.53.53h9.65c.3 0 .54-.24.54-.54V980c0-.3-.25-.53-.55-.53zm-2.66 0h-4.34v-2.36c0-.7.26-1.3.65-1.7.42-.44.95-.68 1.52-.68.58 0 1.1.24 1.52.67.08.1.17.2.25.34.24.37.4.85.4 1.37v2.35z" fill="#d4ffff"/>
    <defs>
      <path fill="#6f7681" d="m264-644 626 253v196L72-574v-146l818-378v196" id="B"/>
      <path fill="#6f7681" d="M584 20C278 26 81-227 91-551c10-320 175-545 491-551 308-5 503 247 494 573-9 322-175 543-492 549zm-2-970c-208 0-305 185-305 421 0 216 106 398 307 398 211 0 307-186 307-420 0-214-109-399-309-399" id="C"/>
      <path fill="#6f7681" d="M632-1102c291 0 422 251 422 573 0 297-141 548-419 549-131 0-235-42-310-125v521H140v-1498h169l9 120c75-93 180-140 314-140zm-53 971c207 0 290-180 290-419 0-218-92-395-292-395-112 0-196 50-252 149v517c55 99 140 148 254 148" id="D"/>
      <path fill="#6f7681" d="M599-131c141 0 220-65 285-146l113 88C906-50 770 20 589 20 281 21 93-214 93-545c0-223 93-397 233-485 74-48 154-72 240-72 300 2 449 218 445 537v77H278c0 197 129 357 321 357zm227-509c-3-180-88-310-260-310-170 0-264 140-282 310h542" id="E"/>
      <path fill="#6f7681" d="M663-916c-163-27-288 18-338 148V0H140v-1082h180l3 125c61-97 147-145 258-145 36 0 63 5 82 14v172" id="F"/>
      <path fill="#6f7681" d="M561-1102c238-4 403 126 403 351v498c0 99 13 178 38 237V0H808c-11-21-19-59-26-114C696-25 593 20 474 20c-199 0-368-130-365-320 4-251 214-359 490-356h180v-85c-1-135-86-212-229-212-115 0-232 67-233 171H131c20-205 206-316 430-320zM294-326c0 117 90 185 207 185 122 0 239-75 278-162v-222H634c-227 0-340 66-340 199" id="G"/>
      <path fill="#6f7681" d="M456 20C285 20 205-92 206-268v-671H9v-143h197v-262h185v262h202v143H391v671c-9 125 92 149 207 118V0c-49 13-96 20-142 20" id="H"/>
      <path fill="#6f7681" d="M795-650 134-909v-190l854 378v146L134-196v-192" id="I"/>
      <path fill="#6f7681" d="M1161-1018c0 201-122 330-278 388l342 618V0h-206L703-589H361V0H168v-1456h482c310-2 511 139 511 438zm-193 0c0-187-120-280-313-280H361v552h295c179 3 313-101 312-272" id="J"/>
      <path fill="#6f7681" d="M730-137c145 0 253-29 323-105v-327H716v-156h528v534C1148-51 964 20 729 20c-394 0-598-279-607-678v-127c-5-410 194-690 585-691 310-1 499 171 537 447h-192c-36-193-151-289-344-289-285 0-393 220-393 528v119c-5 296 140 534 415 534" id="K"/>
      <path fill="#6f7681" d="M1160-420C1159-145 963 0 674 0H169v-1456h476c294-1 476 112 476 388 0 153-99 253-216 302 146 38 255 167 255 346zM678-157c171 2 289-95 289-261 0-175-95-263-286-263H361v524h317zm250-912c-2-172-104-229-283-229H361v463h290c157 3 278-84 277-234" id="L"/>
      <path fill="#6f7681" d="M258 11c-71 0-114-43-114-108 0-67 42-112 114-112s116 45 116 112c-1 65-45 108-116 108" id="M"/>
      <path fill="#6f7681" d="M521 20C240 20 96-239 96-550c0-303 147-552 427-552 132 0 235 47 309 140l9-120h169V-26c4 277-183 454-459 452-165-1-334-81-400-187l96-111c79 98 176 147 291 147 180 1 288-109 286-290v-93C750-23 649 20 521 20zm48-965c-209 0-287 178-287 416 0 217 86 392 285 392 117 0 202-53 257-159v-494c-57-103-142-155-255-155" id="N"/>
      <path fill="#e81313" d="m264-644 626 253v196L72-574v-146l818-378v196" id="O"/>
      <path fill="#e81313" d="M561-1102c238-4 403 126 403 351v498c0 99 13 178 38 237V0H808c-11-21-19-59-26-114C696-25 593 20 474 20c-199 0-368-130-365-320 4-251 214-359 490-356h180v-85c-1-135-86-212-229-212-115 0-232 67-233 171H131c20-205 206-316 430-320zM294-326c0 117 90 185 207 185 122 0 239-75 278-162v-222H634c-227 0-340 66-340 199" id="P"/>
      <path fill="#e81313" d="M277-555c0 244 77 420 297 424 127 2 249-93 255-210h175C980-127 805 20 574 20 258 20 81-222 92-562c11-319 164-533 481-540 237-5 426 165 431 392H829c-7-133-115-242-256-240-209 4-296 166-296 395" id="Q"/>
      <path fill="#e81313" d="M584 20C278 26 81-227 91-551c10-320 175-545 491-551 308-5 503 247 494 573-9 322-175 543-492 549zm-2-970c-208 0-305 185-305 421 0 216 106 398 307 398 211 0 307-186 307-420 0-214-109-399-309-399" id="R"/>
      <path fill="#e81313" d="M491 20c-241-1-355-148-355-398v-704h185v699c0 164 67 246 200 246 141 0 235-53 282-158v-787h185V0H812l-4-107C736-22 630 20 491 20" id="S"/>
      <path fill="#e81313" d="M589-945c-131 0-219 81-264 174V0H140v-1082h175l6 136c83-104 191-156 324-156 229 0 346 129 346 387V0H806v-716c-2-153-65-229-217-229" id="T"/>
      <path fill="#e81313" d="M456 20C285 20 205-92 206-268v-671H9v-143h197v-262h185v262h202v143H391v671c-9 125 92 149 207 118V0c-49 13-96 20-142 20" id="U"/>
      <path fill="#e81313" d="M795-650 134-909v-190l854 378v146L134-196v-192" id="V"/>
      <path fill="#e81313" d="M417-1456 893-268l476-1188h249V0h-192c-4-403 4-794 18-1179L966 0H819L342-1176c15 384 23 773 19 1176H169v-1456h248" id="W"/>
      <path fill="#e81313" d="M375 0H183v-1456h192V0" id="X"/>
      <path fill="#e81313" d="M1288 0h-193L362-1122V0H169v-1456h193l735 1127v-1127h191V0" id="Y"/>
      <path fill="#e81313" d="M1175-1298H707V0H516v-1298H49v-158h1126v158" id="Z"/>
      <path fill="#e81313" d="M132-554c0-555 187-908 715-903v157c-320-8-501 179-526 477 77-88 181-132 314-132 259 0 417 214 417 480 0 286-172 495-451 495-293 0-469-266-469-574zm737 88c0-181-95-335-265-335-133 0-252 96-286 200v68c-6 207 101 397 283 400 175 3 268-150 268-333" id="aa"/>
      <path fill="#e81313" d="M902-489h202v151H902V0H716v-338H53v-109l652-1009h197v967zm-639 0h453v-714l-22 40" id="ab"/>
      <path fill="#008a0e" d="m264-644 626 253v196L72-574v-146l818-378v196" id="ac"/>
      <path fill="#008a0e" d="M561-1102c238-4 403 126 403 351v498c0 99 13 178 38 237V0H808c-11-21-19-59-26-114C696-25 593 20 474 20c-199 0-368-130-365-320 4-251 214-359 490-356h180v-85c-1-135-86-212-229-212-115 0-232 67-233 171H131c20-205 206-316 430-320zM294-326c0 117 90 185 207 185 122 0 239-75 278-162v-222H634c-227 0-340 66-340 199" id="ad"/>
      <path fill="#008a0e" d="M277-555c0 244 77 420 297 424 127 2 249-93 255-210h175C980-127 805 20 574 20 258 20 81-222 92-562c11-319 164-533 481-540 237-5 426 165 431 392H829c-7-133-115-242-256-240-209 4-296 166-296 395" id="ae"/>
      <path fill="#008a0e" d="M584 20C278 26 81-227 91-551c10-320 175-545 491-551 308-5 503 247 494 573-9 322-175 543-492 549zm-2-970c-208 0-305 185-305 421 0 216 106 398 307 398 211 0 307-186 307-420 0-214-109-399-309-399" id="af"/>
      <path fill="#008a0e" d="M491 20c-241-1-355-148-355-398v-704h185v699c0 164 67 246 200 246 141 0 235-53 282-158v-787h185V0H812l-4-107C736-22 630 20 491 20" id="ag"/>
      <path fill="#008a0e" d="M589-945c-131 0-219 81-264 174V0H140v-1082h175l6 136c83-104 191-156 324-156 229 0 346 129 346 387V0H806v-716c-2-153-65-229-217-229" id="ah"/>
      <path fill="#008a0e" d="M456 20C285 20 205-92 206-268v-671H9v-143h197v-262h185v262h202v143H391v671c-9 125 92 149 207 118V0c-49 13-96 20-142 20" id="ai"/>
      <path fill="#008a0e" d="M795-650 134-909v-190l854 378v146L134-196v-192" id="aj"/>
      <path fill="#008a0e" d="M417-1456 893-268l476-1188h249V0h-192c-4-403 4-794 18-1179L966 0H819L342-1176c15 384 23 773 19 1176H169v-1456h248" id="ak"/>
      <path fill="#008a0e" d="M375 0H183v-1456h192V0" id="al"/>
      <path fill="#008a0e" d="M1288 0h-193L362-1122V0H169v-1456h193l735 1127v-1127h191V0" id="am"/>
      <path fill="#008a0e" d="M1175-1298H707V0H516v-1298H49v-158h1126v158" id="an"/>
      <path fill="#008a0e" d="M574-1476c351 0 454 237 460 615v240c0 217-37 378-111 483S733 20 576 20c-346 0-454-246-461-616v-247c0-214 37-373 111-477s190-156 348-156zm275 905c0-337 59-752-275-753-95 0-160 38-207 107-80 118-66 409-67 625 0 157 22 273 68 348s115 113 208 113c91 0 160-35 204-106s69-182 69-334" id="ao"/>
      <path fill="#008a0e" d="M729 0H543v-1233l-373 137v-168l530-199h29V0" id="ap"/>
      <path fill="#008a0e" d="M569-1476c255 0 440 146 439 390 0 143-91 314-274 512L344-151h731V0H121v-133l504-560c75-85 125-155 155-207 105-184 6-424-211-424-183 0-293 113-291 297H93c-3-270 199-449 476-449" id="aq"/>
      <path fill="#008a0e" d="M973-380H363L226 0H28l556-1456h168L1309 0h-197zM421-538h495l-248-681" id="ar"/>
      <path fill="#008a0e" d="M1216-1011c-1 297-202 441-512 441H361V0H169v-1456h537c297-6 510 164 510 445zm-192 2c1-178-126-288-307-289H361v571h345c196 1 318-92 318-282" id="as"/>
      <path fill="#008a0e" d="M1061-1352 458 0H264l601-1304H77v-152h984v104" id="at"/>
      <path fill="#1071e5" d="m264-644 626 253v196L72-574v-146l818-378v196" id="au"/>
      <path fill="#1071e5" d="M561-1102c238-4 403 126 403 351v498c0 99 13 178 38 237V0H808c-11-21-19-59-26-114C696-25 593 20 474 20c-199 0-368-130-365-320 4-251 214-359 490-356h180v-85c-1-135-86-212-229-212-115 0-232 67-233 171H131c20-205 206-316 430-320zM294-326c0 117 90 185 207 185 122 0 239-75 278-162v-222H634c-227 0-340 66-340 199" id="av"/>
      <path fill="#1071e5" d="M277-555c0 244 77 420 297 424 127 2 249-93 255-210h175C980-127 805 20 574 20 258 20 81-222 92-562c11-319 164-533 481-540 237-5 426 165 431 392H829c-7-133-115-242-256-240-209 4-296 166-296 395" id="aw"/>
      <path fill="#1071e5" d="M584 20C278 26 81-227 91-551c10-320 175-545 491-551 308-5 503 247 494 573-9 322-175 543-492 549zm-2-970c-208 0-305 185-305 421 0 216 106 398 307 398 211 0 307-186 307-420 0-214-109-399-309-399" id="ax"/>
      <path fill="#1071e5" d="M491 20c-241-1-355-148-355-398v-704h185v699c0 164 67 246 200 246 141 0 235-53 282-158v-787h185V0H812l-4-107C736-22 630 20 491 20" id="ay"/>
      <path fill="#1071e5" d="M589-945c-131 0-219 81-264 174V0H140v-1082h175l6 136c83-104 191-156 324-156 229 0 346 129 346 387V0H806v-716c-2-153-65-229-217-229" id="az"/>
      <path fill="#1071e5" d="M456 20C285 20 205-92 206-268v-671H9v-143h197v-262h185v262h202v143H391v671c-9 125 92 149 207 118V0c-49 13-96 20-142 20" id="aA"/>
      <path fill="#1071e5" d="M795-650 134-909v-190l854 378v146L134-196v-192" id="aB"/>
      <path fill="#1071e5" d="M973-380H363L226 0H28l556-1456h168L1309 0h-197zM421-538h495l-248-681" id="aC"/>
      <path fill="#1071e5" d="M1216-1011c-1 297-202 441-512 441H361V0H169v-1456h537c297-6 510 164 510 445zm-192 2c1-178-126-288-307-289H361v571h345c196 1 318-92 318-282" id="aD"/>
      <path fill="#1071e5" d="M729 0H543v-1233l-373 137v-168l530-199h29V0" id="aE"/>
      <path fill="#1071e5" d="M569-1476c255 0 440 146 439 390 0 143-91 314-274 512L344-151h731V0H121v-133l504-560c75-85 125-155 155-207 105-184 6-424-211-424-183 0-293 113-291 297H93c-3-270 199-449 476-449" id="aF"/>
      <path fill="#1071e5" d="M832-402c-1-179-119-264-303-265H390v-151h139c164 0 281-91 281-250 0-171-85-256-255-256-154 0-265 99-263 250H107c-4-235 205-402 448-402 266 0 444 150 440 412-2 148-109 272-229 317 147 45 249 158 251 341 3 262-197 426-461 426C299 20 91-135 94-384h186c-2 156 116 253 276 253 176 0 277-96 276-271" id="aG"/>
      <path fill="#1071e5" d="M417-1456 893-268l476-1188h249V0h-192c-4-403 4-794 18-1179L966 0H819L342-1176c15 384 23 773 19 1176H169v-1456h248" id="aH"/>
      <path fill="#1071e5" d="M375 0H183v-1456h192V0" id="aI"/>
      <path fill="#1071e5" d="M1288 0h-193L362-1122V0H169v-1456h193l735 1127v-1127h191V0" id="aJ"/>
      <path fill="#1071e5" d="M1175-1298H707V0H516v-1298H49v-158h1126v158" id="aK"/>
      <path fill="#1071e5" d="M538-131c121 0 232-49 232-156 0-50-20-88-56-117-73-60-334-92-420-143-92-55-162-110-162-238 0-190 192-317 400-317 223 0 414 129 413 338H759c0-108-110-186-227-186-119 0-215 53-215 159 0 45 18 78 53 101 76 52 331 90 416 139 98 57 169 115 169 251C955-92 760 20 538 20c-176 0-314-68-386-174-38-55-57-115-57-179h185c6 129 116 202 258 202" id="aL"/>
      <path fill="#1071e5" d="M599-131c141 0 220-65 285-146l113 88C906-50 770 20 589 20 281 21 93-214 93-545c0-223 93-397 233-485 74-48 154-72 240-72 300 2 449 218 445 537v77H278c0 197 129 357 321 357zm227-509c-3-180-88-310-260-310-170 0-264 140-282 310h542" id="aM"/>
      <path fill="#1071e5" d="M663-916c-163-27-288 18-338 148V0H140v-1082h180l3 125c61-97 147-145 258-145 36 0 63 5 82 14v172" id="aN"/>
      <path fill="#1071e5" d="M1240-945c-141 0-250 95-250 227V0H804v-709c0-157-77-236-231-236-121 0-204 52-249 155V0H139v-1082h175l5 120c79-93 186-140 321-140 151 0 254 58 309 174 69-98 181-174 345-174 237 0 362 126 362 377V0h-185v-714c-2-159-67-231-231-231" id="aO"/>
      <path fill="#1071e5" d="M341 0H156v-1082h185V0zm-91-1264c-68 0-108-42-109-105 0-62 41-107 109-107s110 44 110 107-42 105-110 105" id="aP"/>
      <path fill="#1071e5" d="M634-1102c292 0 422 254 422 573 0 298-143 547-420 549-137 0-242-48-317-145L310 0H140v-1536h185v573c75-93 178-139 309-139zm-44 965c207 0 281-175 281-413 0-224-79-395-283-395-122 0-210 57-263 170v468c57 113 145 170 265 170" id="aQ"/>
      <path fill="#1071e5" d="M520 20C244 20 95-247 95-550c0-298 151-550 427-552 127 0 227 43 301 130v-564h185V0H838l-9-116C755-25 652 20 520 20zm48-965c-210 0-288 177-288 416 0 218 87 392 286 392 117 0 203-53 257-158v-497c-55-102-140-153-255-153" id="aR"/>
      <path fill="#1071e5" d="m494-271 252-811h198L509 167C425 381 299 474 84 421V271c167 16 242-37 283-173l41-110L22-1082h202" id="aS"/>
      <path fill="#e81313" d="M538-131c121 0 232-49 232-156 0-50-20-88-56-117-73-60-334-92-420-143-92-55-162-110-162-238 0-190 192-317 400-317 223 0 414 129 413 338H759c0-108-110-186-227-186-119 0-215 53-215 159 0 45 18 78 53 101 76 52 331 90 416 139 98 57 169 115 169 251C955-92 760 20 538 20c-176 0-314-68-386-174-38-55-57-115-57-179h185c6 129 116 202 258 202" id="aT"/>
      <path fill="#e81313" d="M599-131c141 0 220-65 285-146l113 88C906-50 770 20 589 20 281 21 93-214 93-545c0-223 93-397 233-485 74-48 154-72 240-72 300 2 449 218 445 537v77H278c0 197 129 357 321 357zm227-509c-3-180-88-310-260-310-170 0-264 140-282 310h542" id="aU"/>
      <path fill="#e81313" d="M663-916c-163-27-288 18-338 148V0H140v-1082h180l3 125c61-97 147-145 258-145 36 0 63 5 82 14v172" id="aV"/>
      <path fill="#e81313" d="M1240-945c-141 0-250 95-250 227V0H804v-709c0-157-77-236-231-236-121 0-204 52-249 155V0H139v-1082h175l5 120c79-93 186-140 321-140 151 0 254 58 309 174 69-98 181-174 345-174 237 0 362 126 362 377V0h-185v-714c-2-159-67-231-231-231" id="aW"/>
      <path fill="#e81313" d="M341 0H156v-1082h185V0zm-91-1264c-68 0-108-42-109-105 0-62 41-107 109-107s110 44 110 107-42 105-110 105" id="aX"/>
      <path fill="#e81313" d="M634-1102c292 0 422 254 422 573 0 298-143 547-420 549-137 0-242-48-317-145L310 0H140v-1536h185v573c75-93 178-139 309-139zm-44 965c207 0 281-175 281-413 0-224-79-395-283-395-122 0-210 57-263 170v468c57 113 145 170 265 170" id="aY"/>
      <path fill="#e81313" d="M520 20C244 20 95-247 95-550c0-298 151-550 427-552 127 0 227 43 301 130v-564h185V0H838l-9-116C755-25 652 20 520 20zm48-965c-210 0-288 177-288 416 0 218 87 392 286 392 117 0 203-53 257-158v-497c-55-102-140-153-255-153" id="aZ"/>
      <path fill="#e81313" d="m494-271 252-811h198L509 167C425 381 299 474 84 421V271c167 16 242-37 283-173l41-110L22-1082h202" id="ba"/>
      <path fill="#008a0e" d="M538-131c121 0 232-49 232-156 0-50-20-88-56-117-73-60-334-92-420-143-92-55-162-110-162-238 0-190 192-317 400-317 223 0 414 129 413 338H759c0-108-110-186-227-186-119 0-215 53-215 159 0 45 18 78 53 101 76 52 331 90 416 139 98 57 169 115 169 251C955-92 760 20 538 20c-176 0-314-68-386-174-38-55-57-115-57-179h185c6 129 116 202 258 202" id="bb"/>
      <path fill="#008a0e" d="M599-131c141 0 220-65 285-146l113 88C906-50 770 20 589 20 281 21 93-214 93-545c0-223 93-397 233-485 74-48 154-72 240-72 300 2 449 218 445 537v77H278c0 197 129 357 321 357zm227-509c-3-180-88-310-260-310-170 0-264 140-282 310h542" id="bc"/>
      <path fill="#008a0e" d="M663-916c-163-27-288 18-338 148V0H140v-1082h180l3 125c61-97 147-145 258-145 36 0 63 5 82 14v172" id="bd"/>
      <path fill="#008a0e" d="M1240-945c-141 0-250 95-250 227V0H804v-709c0-157-77-236-231-236-121 0-204 52-249 155V0H139v-1082h175l5 120c79-93 186-140 321-140 151 0 254 58 309 174 69-98 181-174 345-174 237 0 362 126 362 377V0h-185v-714c-2-159-67-231-231-231" id="be"/>
      <path fill="#008a0e" d="M341 0H156v-1082h185V0zm-91-1264c-68 0-108-42-109-105 0-62 41-107 109-107s110 44 110 107-42 105-110 105" id="bf"/>
      <path fill="#008a0e" d="M634-1102c292 0 422 254 422 573 0 298-143 547-420 549-137 0-242-48-317-145L310 0H140v-1536h185v573c75-93 178-139 309-139zm-44 965c207 0 281-175 281-413 0-224-79-395-283-395-122 0-210 57-263 170v468c57 113 145 170 265 170" id="bg"/>
      <path fill="#008a0e" d="M520 20C244 20 95-247 95-550c0-298 151-550 427-552 127 0 227 43 301 130v-564h185V0H838l-9-116C755-25 652 20 520 20zm48-965c-210 0-288 177-288 416 0 218 87 392 286 392 117 0 203-53 257-158v-497c-55-102-140-153-255-153" id="bh"/>
      <path fill="#008a0e" d="m494-271 252-811h198L509 167C425 381 299 474 84 421V271c167 16 242-37 283-173l41-110L22-1082h202" id="bi"/>
      <path fill="#4c535d" d="m264-644 626 253v196L72-574v-146l818-378v196" id="bj"/>
      <path fill="#4c535d" d="M561-1102c238-4 403 126 403 351v498c0 99 13 178 38 237V0H808c-11-21-19-59-26-114C696-25 593 20 474 20c-199 0-368-130-365-320 4-251 214-359 490-356h180v-85c-1-135-86-212-229-212-115 0-232 67-233 171H131c20-205 206-316 430-320zM294-326c0 117 90 185 207 185 122 0 239-75 278-162v-222H634c-227 0-340 66-340 199" id="bk"/>
      <path fill="#4c535d" d="M277-555c0 244 77 420 297 424 127 2 249-93 255-210h175C980-127 805 20 574 20 258 20 81-222 92-562c11-319 164-533 481-540 237-5 426 165 431 392H829c-7-133-115-242-256-240-209 4-296 166-296 395" id="bl"/>
      <path fill="#4c535d" d="M584 20C278 26 81-227 91-551c10-320 175-545 491-551 308-5 503 247 494 573-9 322-175 543-492 549zm-2-970c-208 0-305 185-305 421 0 216 106 398 307 398 211 0 307-186 307-420 0-214-109-399-309-399" id="bm"/>
      <path fill="#4c535d" d="M491 20c-241-1-355-148-355-398v-704h185v699c0 164 67 246 200 246 141 0 235-53 282-158v-787h185V0H812l-4-107C736-22 630 20 491 20" id="bn"/>
      <path fill="#4c535d" d="M589-945c-131 0-219 81-264 174V0H140v-1082h175l6 136c83-104 191-156 324-156 229 0 346 129 346 387V0H806v-716c-2-153-65-229-217-229" id="bo"/>
      <path fill="#4c535d" d="M456 20C285 20 205-92 206-268v-671H9v-143h197v-262h185v262h202v143H391v671c-9 125 92 149 207 118V0c-49 13-96 20-142 20" id="bp"/>
      <path fill="#4c535d" d="M795-650 134-909v-190l854 378v146L134-196v-192" id="bq"/>
      <path fill="#4c535d" d="M631-137c179 0 314-70 314-231 0-71-25-127-75-166s-141-77-272-115c-165-47-285-106-360-175s-112-154-112-255c0-245 231-397 495-397 206 0 369 89 449 218 43 68 65 142 65 223H942c0-184-129-283-321-283-172 0-299 76-301 236 0 59 26 109 76 150s135 78 256 113c205 59 345 116 436 256 35 53 50 119 50 193-2 256-231 398-507 390C333 12 90-129 80-422h193c0 187 160 285 358 285" id="br"/>
      <path fill="#4c535d" d="m613-725 380-731h218L709-543V0H517v-543L15-1456h220" id="bs"/>
      <g id="a">
        <use transform="scale(.00987)" xlink:href="#B"/>
        <use transform="translate(10.279) scale(.00987)" xlink:href="#B"/>
        <use transform="translate(20.558) scale(.00987)" xlink:href="#C"/>
        <use transform="translate(32.09) scale(.00987)" xlink:href="#D"/>
        <use transform="translate(43.436) scale(.00987)" xlink:href="#E"/>
        <use transform="translate(54.15) scale(.00987)" xlink:href="#F"/>
        <use transform="translate(60.598) scale(.00987)" xlink:href="#G"/>
        <use transform="translate(71.597) scale(.00987)" xlink:href="#H"/>
        <use transform="translate(78.006) scale(.00987)" xlink:href="#C"/>
        <use transform="translate(89.539) scale(.00987)" xlink:href="#F"/>
        <use transform="translate(96.381) scale(.00987)" xlink:href="#I"/>
        <use transform="translate(106.947) scale(.00987)" xlink:href="#I"/>
      </g>
      <g id="b">
        <use transform="scale(.00987)" xlink:href="#J"/>
        <use transform="translate(12.451) scale(.00987)" xlink:href="#K"/>
        <use transform="translate(26.226) scale(.00987)" xlink:href="#L"/>
        <use transform="translate(38.815) scale(.00987)" xlink:href="#M"/>
        <use transform="translate(44.137) scale(.00987)" xlink:href="#C"/>
        <use transform="translate(55.67) scale(.00987)" xlink:href="#F"/>
        <use transform="translate(62.326) scale(.00987)" xlink:href="#N"/>
      </g>
      <g id="c">
        <use transform="scale(.0077)" xlink:href="#O"/>
        <use transform="translate(8.02) scale(.0077)" xlink:href="#O"/>
        <use transform="translate(16.04) scale(.0077)" xlink:href="#P"/>
        <use transform="translate(24.622) scale(.0077)" xlink:href="#Q"/>
        <use transform="translate(32.88) scale(.0077)" xlink:href="#Q"/>
        <use transform="translate(41.14) scale(.0077)" xlink:href="#R"/>
        <use transform="translate(50.138) scale(.0077)" xlink:href="#S"/>
        <use transform="translate(58.835) scale(.0077)" xlink:href="#T"/>
        <use transform="translate(67.54) scale(.0077)" xlink:href="#U"/>
        <use transform="translate(72.695) scale(.0077)" xlink:href="#V"/>
        <use transform="translate(80.938) scale(.0077)" xlink:href="#V"/>
      </g>
      <g id="d">
        <use transform="scale(.0077)" xlink:href="#W"/>
        <use transform="translate(13.775) scale(.0077)" xlink:href="#X"/>
        <use transform="translate(18.066) scale(.0077)" xlink:href="#Y"/>
        <use transform="translate(29.09) scale(.0077)" xlink:href="#Z"/>
        <use transform="translate(38.505 2.562) scale(.0054)" xlink:href="#aa"/>
        <use transform="translate(44.706 2.562) scale(.0054)" xlink:href="#ab"/>
      </g>
      <g id="e">
        <use transform="scale(.0077)" xlink:href="#ac"/>
        <use transform="translate(8.02) scale(.0077)" xlink:href="#ac"/>
        <use transform="translate(16.04) scale(.0077)" xlink:href="#ad"/>
        <use transform="translate(24.622) scale(.0077)" xlink:href="#ae"/>
        <use transform="translate(32.88) scale(.0077)" xlink:href="#ae"/>
        <use transform="translate(41.14) scale(.0077)" xlink:href="#af"/>
        <use transform="translate(50.138) scale(.0077)" xlink:href="#ag"/>
        <use transform="translate(58.835) scale(.0077)" xlink:href="#ah"/>
        <use transform="translate(67.54) scale(.0077)" xlink:href="#ai"/>
        <use transform="translate(72.695) scale(.0077)" xlink:href="#aj"/>
        <use transform="translate(80.938) scale(.0077)" xlink:href="#aj"/>
      </g>
      <g id="f">
        <use transform="scale(.0077)" xlink:href="#ak"/>
        <use transform="translate(13.775) scale(.0077)" xlink:href="#al"/>
        <use transform="translate(18.066) scale(.0077)" xlink:href="#am"/>
        <use transform="translate(29.09) scale(.0077)" xlink:href="#an"/>
        <use transform="translate(38.505 2.562) scale(.0054)" xlink:href="#ao"/>
        <use transform="translate(44.706 2.562) scale(.0054)" xlink:href="#ap"/>
      </g>
      <g id="g">
        <use transform="scale(.0077)" xlink:href="#ac"/>
        <use transform="translate(8.02) scale(.0077)" xlink:href="#ac"/>
        <use transform="translate(16.04) scale(.0077)" xlink:href="#ad"/>
        <use transform="translate(24.622) scale(.0077)" xlink:href="#ae"/>
        <use transform="translate(32.88) scale(.0077)" xlink:href="#ae"/>
        <use transform="translate(41.14) scale(.0077)" xlink:href="#af"/>
        <use transform="translate(50.138) scale(.0077)" xlink:href="#ag"/>
        <use transform="translate(58.835) scale(.0077)" xlink:href="#ah"/>
        <use transform="translate(67.54) scale(.0077)" xlink:href="#ai"/>
        <use transform="translate(72.695) scale(.0077)" xlink:href="#aj"/>
        <use transform="translate(80.938) scale(.0077)" xlink:href="#aj"/>
      </g>
      <g id="h">
        <use transform="scale(.0077)" xlink:href="#ak"/>
        <use transform="translate(13.775) scale(.0077)" xlink:href="#al"/>
        <use transform="translate(18.066) scale(.0077)" xlink:href="#am"/>
        <use transform="translate(29.09) scale(.0077)" xlink:href="#an"/>
        <use transform="translate(38.505 2.562) scale(.0054)" xlink:href="#ao"/>
        <use transform="translate(44.706 2.562) scale(.0054)" xlink:href="#aq"/>
      </g>
      <g id="i">
        <use transform="scale(.0077)" xlink:href="#ar"/>
        <use transform="translate(10.293) scale(.0077)" xlink:href="#as"/>
        <use transform="translate(20.246) scale(.0077)" xlink:href="#as"/>
        <use transform="translate(30.2) scale(.0077)" xlink:href="#at"/>
      </g>
      <g id="j">
        <use transform="scale(.0077)" xlink:href="#au"/>
        <use transform="translate(8.02) scale(.0077)" xlink:href="#au"/>
        <use transform="translate(16.04) scale(.0077)" xlink:href="#av"/>
        <use transform="translate(24.622) scale(.0077)" xlink:href="#aw"/>
        <use transform="translate(32.88) scale(.0077)" xlink:href="#aw"/>
        <use transform="translate(41.14) scale(.0077)" xlink:href="#ax"/>
        <use transform="translate(50.138) scale(.0077)" xlink:href="#ay"/>
        <use transform="translate(58.835) scale(.0077)" xlink:href="#az"/>
        <use transform="translate(67.54) scale(.0077)" xlink:href="#aA"/>
        <use transform="translate(72.695) scale(.0077)" xlink:href="#aB"/>
        <use transform="translate(80.938) scale(.0077)" xlink:href="#aB"/>
      </g>
      <g id="k">
        <use transform="scale(.0077)" xlink:href="#aC"/>
        <use transform="translate(10.293) scale(.0077)" xlink:href="#aD"/>
        <use transform="translate(20.246) scale(.0077)" xlink:href="#aD"/>
        <use transform="translate(30.2) scale(.0077)" xlink:href="#aE"/>
      </g>
      <g id="l">
        <use transform="scale(.0077)" xlink:href="#aC"/>
        <use transform="translate(10.293) scale(.0077)" xlink:href="#aD"/>
        <use transform="translate(20.246) scale(.0077)" xlink:href="#aD"/>
        <use transform="translate(30.2) scale(.0077)" xlink:href="#aF"/>
      </g>
      <g id="m">
        <use transform="scale(.0077)" xlink:href="#aC"/>
        <use transform="translate(10.293) scale(.0077)" xlink:href="#aD"/>
        <use transform="translate(20.246) scale(.0077)" xlink:href="#aD"/>
        <use transform="translate(30.2) scale(.0077)" xlink:href="#aG"/>
      </g>
      <g id="n">
        <use transform="scale(.0077)" xlink:href="#aH"/>
        <use transform="translate(13.775) scale(.0077)" xlink:href="#aI"/>
        <use transform="translate(18.066) scale(.0077)" xlink:href="#aJ"/>
        <use transform="translate(29.09) scale(.0077)" xlink:href="#aK"/>
        <use transform="translate(38.505 2.562) scale(.0054)" xlink:href="#aE"/>
        <use transform="translate(44.706 2.562) scale(.0054)" xlink:href="#aE"/>
      </g>
      <g id="o">
        <use transform="scale(.0077)" xlink:href="#au"/>
        <use transform="translate(8.02) scale(.0077)" xlink:href="#au"/>
        <use transform="translate(16.04) scale(.0077)" xlink:href="#ay"/>
        <use transform="translate(24.738) scale(.0077)" xlink:href="#aL"/>
        <use transform="translate(32.873) scale(.0077)" xlink:href="#aM"/>
        <use transform="translate(41.232) scale(.0077)" xlink:href="#aN"/>
        <use transform="translate(46.57) scale(.0077)" xlink:href="#aB"/>
        <use transform="translate(54.814) scale(.0077)" xlink:href="#aB"/>
      </g>
      <g id="p">
        <use transform="scale(.0077)" xlink:href="#aO"/>
        <use transform="translate(13.829) scale(.0077)" xlink:href="#aP"/>
        <use transform="translate(17.658) scale(.0077)" xlink:href="#az"/>
        <use transform="translate(26.363) scale(.0077)" xlink:href="#aA"/>
        <use transform="translate(31.517) scale(.0077)" xlink:href="#aM"/>
        <use transform="translate(39.876) scale(.0077)" xlink:href="#aN"/>
      </g>
      <g id="q">
        <use transform="scale(.0077)" xlink:href="#az"/>
        <use transform="translate(8.706) scale(.0077)" xlink:href="#ax"/>
        <use transform="translate(17.704) scale(.0077)" xlink:href="#aQ"/>
        <use transform="translate(26.556) scale(.0077)" xlink:href="#ax"/>
        <use transform="translate(35.554) scale(.0077)" xlink:href="#aR"/>
        <use transform="translate(44.452) scale(.0077)" xlink:href="#aS"/>
      </g>
      <g id="r">
        <use transform="scale(.0077)" xlink:href="#O"/>
        <use transform="translate(8.02) scale(.0077)" xlink:href="#O"/>
        <use transform="translate(16.04) scale(.0077)" xlink:href="#S"/>
        <use transform="translate(24.738) scale(.0077)" xlink:href="#aT"/>
        <use transform="translate(32.873) scale(.0077)" xlink:href="#aU"/>
        <use transform="translate(41.232) scale(.0077)" xlink:href="#aV"/>
        <use transform="translate(46.57) scale(.0077)" xlink:href="#V"/>
        <use transform="translate(54.814) scale(.0077)" xlink:href="#V"/>
      </g>
      <g id="s">
        <use transform="scale(.0077)" xlink:href="#aW"/>
        <use transform="translate(13.829) scale(.0077)" xlink:href="#aX"/>
        <use transform="translate(17.658) scale(.0077)" xlink:href="#T"/>
        <use transform="translate(26.363) scale(.0077)" xlink:href="#U"/>
        <use transform="translate(31.517) scale(.0077)" xlink:href="#aU"/>
        <use transform="translate(39.876) scale(.0077)" xlink:href="#aV"/>
      </g>
      <g id="t">
        <use transform="scale(.0077)" xlink:href="#T"/>
        <use transform="translate(8.706) scale(.0077)" xlink:href="#R"/>
        <use transform="translate(17.704) scale(.0077)" xlink:href="#aY"/>
        <use transform="translate(26.556) scale(.0077)" xlink:href="#R"/>
        <use transform="translate(35.554) scale(.0077)" xlink:href="#aZ"/>
        <use transform="translate(44.452) scale(.0077)" xlink:href="#ba"/>
      </g>
      <g id="u">
        <use transform="scale(.0077)" xlink:href="#av"/>
        <use transform="translate(8.582) scale(.0077)" xlink:href="#aR"/>
        <use transform="translate(17.48) scale(.0077)" xlink:href="#aO"/>
        <use transform="translate(31.309) scale(.0077)" xlink:href="#aP"/>
        <use transform="translate(35.138) scale(.0077)" xlink:href="#az"/>
      </g>
      <g id="v">
        <use transform="scale(.0077)" xlink:href="#ac"/>
        <use transform="translate(8.02) scale(.0077)" xlink:href="#ac"/>
        <use transform="translate(16.04) scale(.0077)" xlink:href="#ag"/>
        <use transform="translate(24.738) scale(.0077)" xlink:href="#bb"/>
        <use transform="translate(32.873) scale(.0077)" xlink:href="#bc"/>
        <use transform="translate(41.232) scale(.0077)" xlink:href="#bd"/>
        <use transform="translate(46.57) scale(.0077)" xlink:href="#aj"/>
        <use transform="translate(54.814) scale(.0077)" xlink:href="#aj"/>
      </g>
      <g id="w">
        <use transform="scale(.0077)" xlink:href="#be"/>
        <use transform="translate(13.829) scale(.0077)" xlink:href="#bf"/>
        <use transform="translate(17.658) scale(.0077)" xlink:href="#ah"/>
        <use transform="translate(26.363) scale(.0077)" xlink:href="#ai"/>
        <use transform="translate(31.517) scale(.0077)" xlink:href="#bc"/>
        <use transform="translate(39.876) scale(.0077)" xlink:href="#bd"/>
      </g>
      <g id="x">
        <use transform="scale(.0077)" xlink:href="#ac"/>
        <use transform="translate(8.02) scale(.0077)" xlink:href="#ac"/>
        <use transform="translate(16.04) scale(.0077)" xlink:href="#ag"/>
        <use transform="translate(24.738) scale(.0077)" xlink:href="#bb"/>
        <use transform="translate(32.873) scale(.0077)" xlink:href="#bc"/>
        <use transform="translate(41.232) scale(.0077)" xlink:href="#bd"/>
        <use transform="translate(46.57) scale(.0077)" xlink:href="#aj"/>
        <use transform="translate(54.814) scale(.0077)" xlink:href="#aj"/>
      </g>
      <g id="y">
        <use transform="scale(.0077)" xlink:href="#ah"/>
        <use transform="translate(8.706) scale(.0077)" xlink:href="#af"/>
        <use transform="translate(17.704) scale(.0077)" xlink:href="#bg"/>
        <use transform="translate(26.556) scale(.0077)" xlink:href="#af"/>
        <use transform="translate(35.554) scale(.0077)" xlink:href="#bh"/>
        <use transform="translate(44.452) scale(.0077)" xlink:href="#bi"/>
      </g>
      <g id="z">
        <use transform="scale(.0077)" xlink:href="#bj"/>
        <use transform="translate(8.02) scale(.0077)" xlink:href="#bj"/>
        <use transform="translate(16.04) scale(.0077)" xlink:href="#bk"/>
        <use transform="translate(24.622) scale(.0077)" xlink:href="#bl"/>
        <use transform="translate(32.88) scale(.0077)" xlink:href="#bl"/>
        <use transform="translate(41.14) scale(.0077)" xlink:href="#bm"/>
        <use transform="translate(50.138) scale(.0077)" xlink:href="#bn"/>
        <use transform="translate(58.835) scale(.0077)" xlink:href="#bo"/>
        <use transform="translate(67.54) scale(.0077)" xlink:href="#bp"/>
        <use transform="translate(72.695) scale(.0077)" xlink:href="#bq"/>
        <use transform="translate(80.938) scale(.0077)" xlink:href="#bq"/>
      </g>
      <g id="A">
        <use transform="scale(.0077)" xlink:href="#br"/>
        <use transform="translate(9.36) scale(.0077)" xlink:href="#bs"/>
        <use transform="translate(18.713) scale(.0077)" xlink:href="#br"/>
      </g>
    </defs>
  </g>
</svg>